#!OML:ASF F:\VICON\USERDATA\INSTALL\rory3\rory3.ASF
:FULLY-SPECIFIED
:DEGREES
2827
root 0.145843 15.9307 0.0638464 -0.953948 -2.51675 -0.969649
lowerback 10.8794 -0.284489 -3.24619
upperback -2.59749 -1.12625 -3.27456
thorax -8.91055 -0.473065 -1.45709
lowerneck -17.9912 -7.08569 -10.0219
upperneck 29.248 -12.9825 16.9449
head 15.188 -4.64925 6.33627
rclavicle -2.5345e-015 -1.11319e-014
rhumerus 58.997 13.8968 -14.8766
rradius 95.0485
rwrist -36.6491
rhand -2.08838 17.0852
rfingers 7.12502
rthumb 23.5886 -11.488
lclavicle -2.5345e-015 -1.11319e-014
lhumerus 19.0178 -36.9127 81.6151
lradius 94.9086
lwrist 4.20717
lhand -35.0374 -0.452778
lfingers 7.12502
lthumb -8.18082 29.3689
rfemur -4.62745 11.2354 18.735
rtibia 25.0148
rfoot -14.6592 -11.1152
rtoes -10.8374
lfemur -1.19915 -9.82856 -16.4017
ltibia 20.0277
lfoot -13.5533 8.8949
ltoes -12.4771
2828
root 0.148246 15.9303 0.0627339 -0.972179 -2.49382 -1.00957
lowerback 10.9055 -0.30569 -3.1707
upperback -2.58464 -1.14314 -3.25703
thorax -8.91247 -0.484753 -1.47751
lowerneck -17.982 -7.06894 -10.0261
upperneck 29.2338 -12.9531 16.9454
head 15.1737 -4.63785 6.34238
rclavicle -3.8763e-015 -3.18055e-014
rhumerus 58.9886 13.9247 -14.8764
rradius 95.0757
rwrist -36.738
rhand -2.14528 17.0661
rfingers 7.12502
rthumb 23.534 -11.5142
lclavicle -3.8763e-015 -3.18055e-014
lhumerus 18.9825 -36.8802 81.6121
lradius 94.9169
lwrist 4.18142
lhand -35.0001 -0.403625
lfingers 7.12502
lthumb -8.14482 29.4194
rfemur -4.61502 11.2288 18.779
rtibia 25.02
rfoot -14.6505 -11.1518
rtoes -10.8899
lfemur -1.18022 -9.84183 -16.3653
ltibia 20.0322
lfoot -13.5259 8.86817
ltoes -12.4953
2829
root 0.149977 15.9292 0.0622525 -0.98619 -2.51022 -0.935371
lowerback 10.9223 -0.30202 -3.24157
upperback -2.57993 -1.14981 -3.26536
thorax -8.91627 -0.484407 -1.44526
lowerneck -17.984 -7.06029 -10.015
upperneck 29.2379 -12.9353 16.9212
head 15.1687 -4.63151 6.33333
rclavicle -8.54774e-015 -3.81667e-014
rhumerus 59.0019 13.9539 -14.9207
rradius 95.0844
rwrist -36.783
rhand -2.05974 17.0479
rfingers 7.12502
rthumb 23.6161 -11.5218
lclavicle -8.54774e-015 -3.81667e-014
lhumerus 18.9284 -36.8465 81.6086
lradius 94.9479
lwrist 4.15802
lhand -34.9509 -0.249342
lfingers 7.12502
lthumb -8.09737 29.5755
rfemur -4.60477 11.259 18.6947
rtibia 25.0293
rfoot -14.6302 -11.158
rtoes -10.9224
lfemur -1.16312 -9.86374 -16.4595
ltibia 20.0357
lfoot -13.5888 8.82171
ltoes -12.0316
2830
root 0.15189 15.9284 0.0625959 -0.991708 -2.52022 -0.858849
lowerback 10.9109 -0.29833 -3.30252
upperback -2.5748 -1.15457 -3.28731
thorax -8.90369 -0.484264 -1.43353
lowerneck -17.9642 -7.06475 -9.99571
upperneck 29.2455 -12.9492 16.9137
head 15.168 -4.63699 6.32432
rclavicle -3.97569e-016 4.45278e-014
rhumerus 59.0199 13.9689 -14.9975
rradius 95.0586
rwrist -36.8037
rhand -1.90286 17.0094
rfingers 7.12502
rthumb 23.7666 -11.5408
lclavicle -3.97569e-016 4.45278e-014
lhumerus 18.9311 -36.8322 81.5911
lradius 94.8791
lwrist 4.08026
lhand -34.9942 -0.414561
lfingers 7.12502
lthumb -8.13921 29.4087
rfemur -4.60484 11.2645 18.6047
rtibia 25.0397
rfoot -14.5698 -11.1717
rtoes -11.3141
lfemur -1.15917 -9.85215 -16.554
ltibia 20.0287
lfoot -13.5814 8.84903
ltoes -12.1544
2831
root 0.154812 15.928 0.0649492 -0.999832 -2.51298 -0.81936
lowerback 10.8751 -0.29887 -3.29988
upperback -2.56362 -1.15349 -3.30152
thorax -8.87104 -0.484664 -1.45026
lowerneck -17.913 -7.0594 -9.95011
upperneck 29.2113 -12.9361 16.8673
head 15.1284 -4.63471 6.29533
rclavicle 1.07344e-014 7.95139e-015
rhumerus 59.0057 13.9772 -15.0443
rradius 95.0208
rwrist -36.7943
rhand -1.81499 16.9796
rfingers 7.12502
rthumb 23.8508 -11.5596
lclavicle 1.07344e-014 7.95139e-015
lhumerus 18.8941 -36.8496 81.5989
lradius 94.8373
lwrist 3.93595
lhand -35.0101 -0.532166
lfingers 7.12502
lthumb -8.15455 29.2905
rfemur -4.59566 11.212 18.5459
rtibia 25.045
rfoot -14.5539 -11.1568
rtoes -11.6303
lfemur -1.13965 -9.85276 -16.6203
ltibia 20.0316
lfoot -13.5881 8.92767
ltoes -12.2979
2832
root 0.157064 15.9277 0.0677745 -1.02 -2.5154 -0.81745
lowerback 10.8384 -0.293259 -3.2699
upperback -2.53317 -1.13832 -3.30464
thorax -8.817 -0.479584 -1.47283
lowerneck -17.8591 -7.05507 -9.82036
upperneck 29.1286 -12.9085 16.725
head 15.0451 -4.62857 6.20681
rclavicle 7.10655e-015 -7.95139e-015
rhumerus 58.9843 13.9414 -15.0355
rradius 95.0264
rwrist -36.7787
rhand -1.76082 16.8505
rfingers 7.12502
rthumb 23.9028 -11.6819
lclavicle 7.10655e-015 -7.95139e-015
lhumerus 18.8518 -36.9054 81.6168
lradius 94.8504
lwrist 3.85297
lhand -35.0742 -0.555526
lfingers 7.12502
lthumb -8.21635 29.2647
rfemur -4.55481 11.2194 18.5393
rtibia 25.0332
rfoot -14.5594 -11.1635
rtoes -11.7505
lfemur -1.11642 -9.84793 -16.6397
ltibia 20.0534
lfoot -13.6212 8.90853
ltoes -12.2712
2833
root 0.157473 15.9272 0.0683752 -1.0032 -2.51415 -0.85601
lowerback 10.8137 -0.289401 -3.22861
upperback -2.54009 -1.12544 -3.2953
thorax -8.81052 -0.475291 -1.4885
lowerneck -17.7426 -7.04798 -9.72489
upperneck 29.0196 -12.8902 16.6526
head 14.9482 -4.6263 6.1534
rclavicle 3.8763e-015 1.59028e-015
rhumerus 58.9614 13.9589 -14.978
rradius 95.0086
rwrist -36.7003
rhand -1.77716 16.787
rfingers 7.12502
rthumb 23.8871 -11.7475
lclavicle 3.8763e-015 1.59028e-015
lhumerus 18.8176 -36.9492 81.6187
lradius 94.896
lwrist 3.91485
lhand -35.0459 -0.488019
lfingers 7.12502
lthumb -8.18908 29.3333
rfemur -4.55748 11.2543 18.5848
rtibia 25.0244
rfoot -14.5577 -11.2203
rtoes -11.7746
lfemur -1.14978 -9.80408 -16.5855
ltibia 20.065
lfoot -13.6056 8.86879
ltoes -12.2356
2834
root 0.15806 15.9266 0.0686105 -1.00315 -2.52396 -0.85553
lowerback 10.7974 -0.298374 -3.23087
upperback -2.53675 -1.13576 -3.28492
thorax -8.7971 -0.479964 -1.47419
lowerneck -17.7091 -7.03423 -9.72569
upperneck 29.0022 -12.8721 16.6641
head 14.9303 -4.61948 6.16152
rclavicle -7.45443e-016 4.77083e-014
rhumerus 58.9898 13.9778 -14.9492
rradius 95.001
rwrist -36.6565
rhand -1.80883 16.7802
rfingers 7.12502
rthumb 23.8567 -11.7582
lclavicle -7.45443e-016 4.77083e-014
lhumerus 18.8315 -36.9191 81.5957
lradius 94.8831
lwrist 4.03406
lhand -35.0404 -0.539429
lfingers 7.12502
lthumb -8.1838 29.2821
rfemur -4.55666 11.2497 18.5792
rtibia 25.0166
rfoot -14.618 -11.1874
rtoes -11.5187
lfemur -1.15378 -9.79297 -16.5884
ltibia 20.0747
lfoot -13.6106 8.90431
ltoes -12.2112
2835
root 0.159463 15.9265 0.0691474 -1.01135 -2.52691 -0.777551
lowerback 10.8074 -0.299401 -3.30084
upperback -2.53228 -1.14919 -3.30618
thorax -8.79753 -0.483429 -1.45506
lowerneck -17.7439 -7.03745 -9.72401
upperneck 29.0199 -12.889 16.691
head 14.9528 -4.6213 6.17076
rclavicle 9.54166e-015 2.06736e-014
rhumerus 58.9994 13.9769 -14.9265
rradius 94.9807
rwrist -36.6607
rhand -1.83392 16.8578
rfingers 7.12502
rthumb 23.8327 -11.6838
lclavicle 9.54166e-015 2.06736e-014
lhumerus 18.8603 -36.9002 81.568
lradius 94.9
lwrist 4.15108
lhand -34.9763 -0.545094
lfingers 7.12502
lthumb -8.12194 29.2788
rfemur -4.57056 11.2231 18.4795
rtibia 25.0388
rfoot -14.6473 -11.1303
rtoes -11.1678
lfemur -1.13784 -9.79892 -16.6836
ltibia 20.0643
lfoot -13.612 8.89754
ltoes -12.2201
2836
root 0.160266 15.9277 0.0699562 -1.02248 -2.56471 -0.852428
lowerback 10.8272 -0.298098 -3.22123
upperback -2.53178 -1.13502 -3.2793
thorax -8.80899 -0.479861 -1.47367
lowerneck -17.7535 -7.03553 -9.71618
upperneck 29.0322 -12.8896 16.688
head 14.9599 -4.62025 6.16869
rclavicle -6.80837e-015 2.22639e-014
rhumerus 59.0226 13.9748 -14.8723
rradius 94.9422
rwrist -36.6601
rhand -1.88387 16.964
rfingers 7.12502
rthumb 23.7848 -11.5839
lclavicle -6.80837e-015 2.22639e-014
lhumerus 18.8332 -36.8816 81.5998
lradius 94.9629
lwrist 4.1994
lhand -35.0148 -0.591548
lfingers 7.12502
lthumb -8.15906 29.2309
rfemur -4.58082 11.3004 18.5686
rtibia 25.0756
rfoot -14.6832 -11.1655
rtoes -10.8609
lfemur -1.08269 -9.77934 -16.6099
ltibia 20.0195
lfoot -13.6086 8.87499
ltoes -12.3936
2837
root 0.162517 15.9286 0.0708091 -1.02214 -2.58996 -0.852642
lowerback 10.8023 -0.283813 -3.18728
upperback -2.51682 -1.10996 -3.29079
thorax -8.77895 -0.470191 -1.50942
lowerneck -17.7513 -7.05088 -9.71289
upperneck 29.0228 -12.9196 16.7072
head 14.9629 -4.63083 6.16983
rclavicle 6.70898e-015 -3.18055e-015
rhumerus 58.9946 13.9402 -14.8294
rradius 94.9411
rwrist -36.7335
rhand -1.86934 16.941
rfingers 7.12502
rthumb 23.7987 -11.6051
lclavicle 6.70898e-015 -3.18055e-015
lhumerus 18.8321 -36.9021 81.6326
lradius 95.008
lwrist 4.22868
lhand -34.9769 -0.668272
lfingers 7.12502
lthumb -8.12251 29.1556
rfemur -4.60719 11.2905 18.5569
rtibia 25.1146
rfoot -14.7318 -11.1349
rtoes -11.0708
lfemur -1.04303 -9.78353 -16.6221
ltibia 19.9655
lfoot -13.6113 8.88274
ltoes -12.0775
2838
root 0.163526 15.9294 0.0725003 -1.019 -2.5896 -0.775573
lowerback 10.7804 -0.28316 -3.2473
upperback -2.51601 -1.11948 -3.32838
thorax -8.76543 -0.472926 -1.51411
lowerneck -17.7823 -7.07363 -9.73481
upperneck 29.088 -12.9774 16.7592
head 15.0192 -4.64933 6.18994
rclavicle 9.54166e-015 1.43125e-014
rhumerus 58.9897 13.9238 -14.8539
rradius 94.9593
rwrist -36.8266
rhand -1.80943 16.9366
rfingers 7.12502
rthumb 23.8562 -11.6019
lclavicle 9.54166e-015 1.43125e-014
lhumerus 18.8121 -36.9112 81.6369
lradius 95.0213
lwrist 4.17228
lhand -34.9421 -0.571806
lfingers 7.12502
lthumb -8.08892 29.2534
rfemur -4.61678 11.3225 18.472
rtibia 25.1277
rfoot -14.7125 -11.2161
rtoes -11.4609
lfemur -1.03007 -9.79837 -16.7189
ltibia 19.948
lfoot -13.6185 8.90491
ltoes -11.9173
2839
root 0.164218 15.9292 0.0735846 -1.03621 -2.58553 -0.775409
lowerback 10.7985 -0.31373 -3.25039
upperback -2.52267 -1.16247 -3.33178
thorax -8.78345 -0.493514 -1.50828
lowerneck -17.8025 -7.06926 -9.8108
upperneck 29.1747 -13.0046 16.876
head 15.0892 -4.65386 6.25763
rclavicle 9.69075e-015 -3.18055e-014
rhumerus 59.0492 13.9562 -14.8806
rradius 94.9806
rwrist -36.8933
rhand -1.86541 16.9287
rfingers 7.12502
rthumb 23.8025 -11.6169
lclavicle 9.69075e-015 -3.18055e-014
lhumerus 18.7893 -36.8406 81.6156
lradius 95.0093
lwrist 4.07378
lhand -34.9103 -0.446223
lfingers 7.12502
lthumb -8.05823 29.3801
rfemur -4.60265 11.3375 18.4755
rtibia 25.1456
rfoot -14.7401 -11.244
rtoes -11.4176
lfemur -0.999312 -9.79346 -16.7252
ltibia 19.9332
lfoot -13.606 8.87819
ltoes -11.989
2840
root 0.165805 15.9294 0.0754711 -1.06546 -2.61213 -0.851599
lowerback 10.8274 -0.320088 -3.16477
upperback -2.5224 -1.15901 -3.31384
thorax -8.80083 -0.495671 -1.5379
lowerneck -17.8245 -7.06619 -9.83507
upperneck 29.2361 -13.0191 16.9207
head 15.133 -4.65548 6.284
rclavicle 5.31749e-015 1.27222e-014
rhumerus 59.0682 13.963 -14.859
rradius 95.0116
rwrist -36.9701
rhand -1.91127 16.958
rfingers 7.12502
rthumb 23.7585 -11.5933
lclavicle 5.31749e-015 1.27222e-014
lhumerus 18.7578 -36.819 81.624
lradius 95.0264
lwrist 4.00325
lhand -34.962 -0.432722
lfingers 7.12502
lthumb -8.1081 29.3917
rfemur -4.56556 11.3129 18.5573
rtibia 25.1484
rfoot -14.7379 -11.2292
rtoes -11.6406
lfemur -0.963838 -9.7795 -16.6582
ltibia 19.9319
lfoot -13.5876 8.94977
ltoes -12.3757
2841
root 0.167769 15.9279 0.0763109 -1.0892 -2.63346 -0.815136
lowerback 10.8394 -0.308475 -3.18498
upperback -2.51377 -1.14765 -3.32602
thorax -8.79842 -0.48953 -1.54151
lowerneck -17.813 -7.07449 -9.84681
upperneck 29.2186 -13.0381 16.9549
head 15.1309 -4.662 6.29646
rclavicle 1.7344e-014 7.15625e-014
rhumerus 59.0598 13.9175 -14.85
rradius 95.0463
rwrist -37.0853
rhand -1.81943 16.9867
rfingers 7.12502
rthumb 23.8466 -11.553
lclavicle 1.7344e-014 7.15625e-014
lhumerus 18.7784 -36.8109 81.6517
lradius 95.0143
lwrist 3.96247
lhand -35.0579 -0.49169
lfingers 7.12502
lthumb -8.20061 29.3292
rfemur -4.52836 11.2943 18.5121
rtibia 25.1338
rfoot -14.6864 -11.2148
rtoes -11.8654
lfemur -0.947425 -9.79097 -16.7124
ltibia 19.9528
lfoot -13.6211 8.97546
ltoes -12.5895
